# xmcd
#
# Track frame offsets:
#	150
#	19055
#	43947
#	68807
#	86267
#	115692
#	141620
#
# Disc length: 2246 seconds
#
# Revision: 4
# Processed by: cddbd v1.5.1PL0 Copyright (c) Steve Scherf et al.
# Submitted via: EasyCDDAExtractor 8.0.2.1
#
DISCID=5c08c407
DTITLE=Keith Sweat - I Want Her [CD Single)
DYEAR=1997
DGENRE=R&B
TTITLE0=I Want Her (Femi Fem's 97 Radio Mix)
TTITLE1=I Want Her (Femi Fem's Master Mix)
TTITLE2=I Want Her (Femi Fem's Instrumental)
TTITLE3=I Want Her (Funky DL Remix)
TTITLE4=I Want Her (Dubaholics Vocal Dub Mix)
TTITLE5=I Want Her (Dubaholics Deep Club Mix)
TTITLE6=I Want Her (Original Album Version)
EXTD=
EXTT0=
EXTT1=
EXTT2=
EXTT3=
EXTT4=
EXTT5=
EXTT6=
PLAYORDER=
